<svg width="20" height="20" viewBox="0 0 20 20" fill="none" xmlns="http://www.w3.org/2000/svg">
<g clip-path="url(#clip0_44_129)">
<path d="M5.68262 9.84766C3.85449 9.84766 2.73828 8.57324 2.73828 6.52539V6.5166C2.73828 4.47754 3.85449 3.20312 5.68262 3.20312C7.50195 3.20312 8.61816 4.47754 8.61816 6.5166V6.52539C8.61816 8.57324 7.50195 9.84766 5.68262 9.84766ZM6.99219 16H5.03223L13.0479 3.31738H14.999L6.99219 16ZM5.68262 8.38867C6.38574 8.38867 6.77246 7.72949 6.77246 6.52539V6.5166C6.77246 5.32129 6.38574 4.66211 5.68262 4.66211C4.9707 4.66211 4.5752 5.32129 4.5752 6.5166V6.52539C4.5752 7.72949 4.9707 8.38867 5.68262 8.38867ZM14.3574 16.1143C12.5293 16.1143 11.4131 14.8398 11.4131 12.792V12.7832C11.4131 10.7441 12.5293 9.46973 14.3574 9.46973C16.1768 9.46973 17.293 10.7441 17.293 12.7832V12.792C17.293 14.8398 16.1768 16.1143 14.3574 16.1143ZM14.3574 14.6553C15.0605 14.6553 15.4473 13.9961 15.4473 12.792V12.7832C15.4473 11.5879 15.0605 10.9287 14.3574 10.9287C13.6455 10.9287 13.25 11.5879 13.25 12.7832V12.792C13.25 13.9961 13.6455 14.6553 14.3574 14.6553Z" fill="#91A196"/>
</g>
<defs>
<clipPath id="clip0_44_129">
<rect width="16" height="14" fill="white" transform="translate(2 3)"/>
</clipPath>
</defs>
</svg>
