<svg width="100" height="100" viewBox="0 0 100 100" fill="none" xmlns="http://www.w3.org/2000/svg">
<g clip-path="url(#clip0_39_82)">
<path d="M0.0681636 27.2635C0.0681636 34.6964 2.03288 40.1327 3.65477 44.9974C5.44707 50.3697 7.4599 54.2871 8.96351 56.8493C11.1287 55.6781 13.2959 54.5069 15.4611 53.3357C10.5513 47.1739 8.23577 40.5944 7.17722 36.9389C5.78388 32.1302 5.59142 29.1022 5.59142 27.5113C5.59142 15.8812 9.09984 10.6268 17.1592 10.6268H44.6993V38.222L0 61.4802V73.7359L49.998 100V88.7437L23.0172 75.6126C17.1492 72.7365 12.3476 70.7359 6.55573 67.7339V67.2343C12.3476 64.2323 17.1492 62.1058 23.0172 59.3556L49.998 46.2246V44.9015H50V0H16.6379C7.53208 0 0.0681636 6.87732 0.0681636 27.2635Z" fill="#91A196"/>
<path d="M99.9318 27.2635C99.9318 34.6964 97.967 40.1327 96.3451 44.9974C94.5527 50.3697 92.5398 54.2871 91.0361 56.8493C88.8708 55.6781 86.7036 54.5069 84.5383 53.3357C89.4483 47.1739 91.7639 40.5944 92.8225 36.9389C94.2159 32.1302 94.4084 29.1022 94.4084 27.5113C94.4084 15.8812 90.8998 10.6268 82.8401 10.6268H55.2969V38.222L100 61.4802V73.7359L50.002 100V88.7437L76.9838 75.6126C82.8522 72.7365 87.6539 70.7359 93.446 67.7339V67.2343C87.6539 64.2323 82.8522 62.1058 76.9838 59.3556L50.002 46.2246V44.9015L50 0H83.3634C92.4676 0 99.9318 6.87733 99.9318 27.2635Z" fill="#91A196"/>
</g>
<defs>
<clipPath id="clip0_39_82">
<rect width="100" height="100" fill="white"/>
</clipPath>
</defs>
</svg>
