<svg width="20" height="20" viewBox="0 0 20 20" fill="none" xmlns="http://www.w3.org/2000/svg">
<path d="M2.40918 15V5.13574H6.2373C8.25391 5.13574 9.52539 6.30469 9.52539 8.15723V8.1709C9.52539 9.51074 8.79395 10.5772 7.61133 10.9805L9.81934 15H8.05566L6.0459 11.2129H3.94043V15H2.40918ZM3.94043 9.95508H6.08691C7.26953 9.95508 7.94629 9.30566 7.94629 8.18457V8.1709C7.94629 7.07715 7.22168 6.4209 6.0459 6.4209H3.94043V9.95508ZM14.0439 15.9912V14.8428C12.3076 14.7129 11.002 13.7422 10.8926 12.1836L10.8857 12.0879H12.3008L12.3145 12.1631C12.4443 12.8945 12.9365 13.4824 14.0439 13.5986V10.6113L13.7637 10.5498C12.0137 10.1465 11.0908 9.35352 11.0908 7.96582V7.95898C11.0908 6.44141 12.3145 5.42285 14.0439 5.29297V4.14453H14.8164V5.29297C16.5049 5.42285 17.7012 6.41406 17.8105 7.9043L17.8174 8.01367H16.3955L16.3887 7.95215C16.293 7.15918 15.6982 6.64648 14.8164 6.53711V9.39453L15.1445 9.46973C16.9561 9.88672 17.9268 10.6318 17.9268 12.0879V12.0947C17.9268 13.7695 16.5596 14.7266 14.8164 14.8428V15.9912H14.0439ZM12.54 7.87695C12.54 8.50586 12.9434 8.95703 14.0439 9.2168V6.53711C13.0596 6.66016 12.54 7.24121 12.54 7.86328V7.87695ZM14.8301 10.7959L14.8164 10.7891V13.6123C15.999 13.5166 16.4775 12.9424 16.4775 12.2109V12.2041C16.4775 11.5137 16.1152 11.0967 14.8301 10.7959Z" fill="#91A196"/>
</svg>
