<svg width="16" height="14" viewBox="0 0 16 14" fill="none" xmlns="http://www.w3.org/2000/svg">
<path d="M3.68262 6.84766C1.85449 6.84766 0.738281 5.57324 0.738281 3.52539V3.5166C0.738281 1.47754 1.85449 0.203125 3.68262 0.203125C5.50195 0.203125 6.61816 1.47754 6.61816 3.5166V3.52539C6.61816 5.57324 5.50195 6.84766 3.68262 6.84766ZM4.99219 13H3.03223L11.0479 0.317383H12.999L4.99219 13ZM3.68262 5.38867C4.38574 5.38867 4.77246 4.72949 4.77246 3.52539V3.5166C4.77246 2.32129 4.38574 1.66211 3.68262 1.66211C2.9707 1.66211 2.5752 2.32129 2.5752 3.5166V3.52539C2.5752 4.72949 2.9707 5.38867 3.68262 5.38867ZM12.3574 13.1143C10.5293 13.1143 9.41309 11.8398 9.41309 9.79199V9.7832C9.41309 7.74414 10.5293 6.46973 12.3574 6.46973C14.1768 6.46973 15.293 7.74414 15.293 9.7832V9.79199C15.293 11.8398 14.1768 13.1143 12.3574 13.1143ZM12.3574 11.6553C13.0605 11.6553 13.4473 10.9961 13.4473 9.79199V9.7832C13.4473 8.58789 13.0605 7.92871 12.3574 7.92871C11.6455 7.92871 11.25 8.58789 11.25 9.7832V9.79199C11.25 10.9961 11.6455 11.6553 12.3574 11.6553Z" fill="#91A196"/>
</svg>
