<svg width="16" height="16" viewBox="0 0 16 16" fill="none" xmlns="http://www.w3.org/2000/svg">
<path d="M8 11.3333C8.36666 11.3333 8.68055 11.2028 8.94166 10.9417C9.20278 10.6805 9.33333 10.3667 9.33333 9.99999C9.33333 9.63332 9.20278 9.31944 8.94166 9.05832C8.68055 8.79721 8.36666 8.66666 8 8.66666C7.63333 8.66666 7.31944 8.79721 7.05833 9.05832C6.79722 9.31944 6.66666 9.63332 6.66666 9.99999C6.66666 10.3667 6.79722 10.6805 7.05833 10.9417C7.31944 11.2028 7.63333 11.3333 8 11.3333ZM4 14.6667C3.63333 14.6667 3.31944 14.5361 3.05833 14.275C2.79722 14.0139 2.66666 13.7 2.66666 13.3333V6.66666C2.66666 6.29999 2.79722 5.9861 3.05833 5.72499C3.31944 5.46388 3.63333 5.33332 4 5.33332H8.66666V3.99999C8.66666 3.07777 8.99166 2.29166 9.64166 1.64166C10.2917 0.991657 11.0778 0.666656 12 0.666656C12.8333 0.666656 13.5583 0.936101 14.175 1.47499C14.7917 2.01388 15.1611 2.67777 15.2833 3.46666C15.3056 3.6111 15.2556 3.7361 15.1333 3.84166C15.0111 3.94721 14.8556 3.99999 14.6667 3.99999C14.4778 3.99999 14.3222 3.9611 14.2 3.88332C14.0778 3.80555 13.9889 3.67777 13.9333 3.49999C13.8111 3.07777 13.575 2.72221 13.225 2.43332C12.875 2.14443 12.4667 1.99999 12 1.99999C11.4444 1.99999 10.9722 2.19443 10.5833 2.58332C10.1944 2.97221 10 3.44443 10 3.99999V5.33332H12C12.3667 5.33332 12.6806 5.46388 12.9417 5.72499C13.2028 5.9861 13.3333 6.29999 13.3333 6.66666V13.3333C13.3333 13.7 13.2028 14.0139 12.9417 14.275C12.6806 14.5361 12.3667 14.6667 12 14.6667H4Z" fill="#91A196"/>
</svg>
